<svg xmlns="http://www.w3.org/2000/svg" width="950" height="600" viewBox="0 0 950 600">
<rect width="100%" height="100%" fill="white"/>
<text x="475.0" y="30" text-anchor="middle" font-size="24" font-family="Arial">Mechanistic corpus share within early-life food allergy literature</text>
<text x="475.0" y="55" text-anchor="middle" font-size="15" font-family="Arial" fill="#444">Main corpus as a percentage of the broader early-life food allergy background</text>
<line x1="90" y1="520" x2="870" y2="520" stroke="black" stroke-width="2"/>
<line x1="90" y1="70" x2="90" y2="520" stroke="black" stroke-width="2"/>
<line x1="90" y1="520.0" x2="870" y2="520.0" stroke="#dddddd" stroke-width="1"/>
<text x="80" y="525.0" text-anchor="end" font-size="14" font-family="Arial">0%</text>
<line x1="90" y1="445.0" x2="870" y2="445.0" stroke="#dddddd" stroke-width="1"/>
<text x="80" y="450.0" text-anchor="end" font-size="14" font-family="Arial">5%</text>
<line x1="90" y1="370.0" x2="870" y2="370.0" stroke="#dddddd" stroke-width="1"/>
<text x="80" y="375.0" text-anchor="end" font-size="14" font-family="Arial">10%</text>
<line x1="90" y1="295.0" x2="870" y2="295.0" stroke="#dddddd" stroke-width="1"/>
<text x="80" y="300.0" text-anchor="end" font-size="14" font-family="Arial">15%</text>
<line x1="90" y1="220.0" x2="870" y2="220.0" stroke="#dddddd" stroke-width="1"/>
<text x="80" y="225.0" text-anchor="end" font-size="14" font-family="Arial">20%</text>
<line x1="90" y1="145.0" x2="870" y2="145.0" stroke="#dddddd" stroke-width="1"/>
<text x="80" y="150.0" text-anchor="end" font-size="14" font-family="Arial">25%</text>
<line x1="90" y1="70.0" x2="870" y2="70.0" stroke="#dddddd" stroke-width="1"/>
<text x="80" y="75.0" text-anchor="end" font-size="14" font-family="Arial">30%</text>
<line x1="90.0" y1="70" x2="90.0" y2="520" stroke="#eeeeee" stroke-width="1"/>
<text x="90.0" y="545" text-anchor="middle" font-size="14" font-family="Arial">2015</text>
<line x1="168.0" y1="70" x2="168.0" y2="520" stroke="#eeeeee" stroke-width="1"/>
<text x="168.0" y="545" text-anchor="middle" font-size="14" font-family="Arial">2016</text>
<line x1="246.0" y1="70" x2="246.0" y2="520" stroke="#eeeeee" stroke-width="1"/>
<text x="246.0" y="545" text-anchor="middle" font-size="14" font-family="Arial">2017</text>
<line x1="324.0" y1="70" x2="324.0" y2="520" stroke="#eeeeee" stroke-width="1"/>
<text x="324.0" y="545" text-anchor="middle" font-size="14" font-family="Arial">2018</text>
<line x1="402.0" y1="70" x2="402.0" y2="520" stroke="#eeeeee" stroke-width="1"/>
<text x="402.0" y="545" text-anchor="middle" font-size="14" font-family="Arial">2019</text>
<line x1="480.0" y1="70" x2="480.0" y2="520" stroke="#eeeeee" stroke-width="1"/>
<text x="480.0" y="545" text-anchor="middle" font-size="14" font-family="Arial">2020</text>
<line x1="558.0" y1="70" x2="558.0" y2="520" stroke="#eeeeee" stroke-width="1"/>
<text x="558.0" y="545" text-anchor="middle" font-size="14" font-family="Arial">2021</text>
<line x1="636.0" y1="70" x2="636.0" y2="520" stroke="#eeeeee" stroke-width="1"/>
<text x="636.0" y="545" text-anchor="middle" font-size="14" font-family="Arial">2022</text>
<line x1="714.0" y1="70" x2="714.0" y2="520" stroke="#eeeeee" stroke-width="1"/>
<text x="714.0" y="545" text-anchor="middle" font-size="14" font-family="Arial">2023</text>
<line x1="792.0" y1="70" x2="792.0" y2="520" stroke="#eeeeee" stroke-width="1"/>
<text x="792.0" y="545" text-anchor="middle" font-size="14" font-family="Arial">2024</text>
<line x1="870.0" y1="70" x2="870.0" y2="520" stroke="#eeeeee" stroke-width="1"/>
<text x="870.0" y="545" text-anchor="middle" font-size="14" font-family="Arial">2025</text>
<text x="480.0" y="580" text-anchor="middle" font-size="18" font-family="Arial">Publication year</text>
<text x="25" y="295.0" text-anchor="middle" font-size="18" font-family="Arial" transform="rotate(-90 25 295.0)">Main corpus share (%)</text>
<polyline fill="none" stroke="#1f77b4" stroke-width="3.5" points="90.0,312.1 168.0,222.1 246.0,200.4 324.0,231.0 402.0,175.2 480.0,140.1 558.0,225.6 636.0,214.7 714.0,212.3 792.0,220.6 870.0,208.9"/>
<circle cx="90.0" cy="312.1" r="4.8" fill="#1f77b4"/>
<circle cx="168.0" cy="222.1" r="4.8" fill="#1f77b4"/>
<circle cx="246.0" cy="200.4" r="4.8" fill="#1f77b4"/>
<circle cx="324.0" cy="231.0" r="4.8" fill="#1f77b4"/>
<circle cx="402.0" cy="175.2" r="4.8" fill="#1f77b4"/>
<circle cx="480.0" cy="140.1" r="4.8" fill="#1f77b4"/>
<circle cx="558.0" cy="225.6" r="4.8" fill="#1f77b4"/>
<circle cx="636.0" cy="214.7" r="4.8" fill="#1f77b4"/>
<circle cx="714.0" cy="212.3" r="4.8" fill="#1f77b4"/>
<circle cx="792.0" cy="220.6" r="4.8" fill="#1f77b4"/>
<circle cx="870.0" cy="208.9" r="4.8" fill="#1f77b4"/>
<text x="90.0" y="302.0792079207921" text-anchor="middle" font-size="12" font-family="Arial" fill="#333">13.9</text>
<text x="168.0" y="212.05479452054806" text-anchor="middle" font-size="12" font-family="Arial" fill="#333">19.9</text>
<text x="246.0" y="190.4123711340207" text-anchor="middle" font-size="12" font-family="Arial" fill="#333">21.3</text>
<text x="324.0" y="221.00917431192659" text-anchor="middle" font-size="12" font-family="Arial" fill="#333">19.3</text>
<text x="402.0" y="165.22388059701495" text-anchor="middle" font-size="12" font-family="Arial" fill="#333">23.0</text>
<text x="480.0" y="130.1044386422978" text-anchor="middle" font-size="12" font-family="Arial" fill="#333">25.3</text>
<text x="558.0" y="215.6074766355141" text-anchor="middle" font-size="12" font-family="Arial" fill="#333">19.6</text>
<text x="636.0" y="204.69026548672576" text-anchor="middle" font-size="12" font-family="Arial" fill="#333">20.4</text>
<text x="714.0" y="202.30769230769238" text-anchor="middle" font-size="12" font-family="Arial" fill="#333">20.5</text>
<text x="792.0" y="210.6437768240345" text-anchor="middle" font-size="12" font-family="Arial" fill="#333">20.0</text>
<text x="870.0" y="198.8888888888889" text-anchor="middle" font-size="12" font-family="Arial" fill="#333">20.7</text>
</svg>