<svg xmlns="http://www.w3.org/2000/svg" width="1000" height="650" viewBox="0 0 1000 650">
<rect width="100%" height="100%" fill="white"/>
<text x="500.0" y="30" text-anchor="middle" font-size="24" font-family="Arial">Theme proportions over time</text>
<line x1="90" y1="570" x2="780" y2="570" stroke="black" stroke-width="2"/>
<line x1="90" y1="60" x2="90" y2="570" stroke="black" stroke-width="2"/>
<line x1="90" y1="570.0" x2="780" y2="570.0" stroke="#dddddd" stroke-width="1"/>
<text x="80" y="575.0" text-anchor="end" font-size="14" font-family="Arial">0.00</text>
<line x1="90" y1="468.0" x2="780" y2="468.0" stroke="#dddddd" stroke-width="1"/>
<text x="80" y="473.0" text-anchor="end" font-size="14" font-family="Arial">0.18</text>
<line x1="90" y1="366.0" x2="780" y2="366.0" stroke="#dddddd" stroke-width="1"/>
<text x="80" y="371.0" text-anchor="end" font-size="14" font-family="Arial">0.36</text>
<line x1="90" y1="263.99999999999994" x2="780" y2="263.99999999999994" stroke="#dddddd" stroke-width="1"/>
<text x="80" y="268.99999999999994" text-anchor="end" font-size="14" font-family="Arial">0.54</text>
<line x1="90" y1="162.00000000000006" x2="780" y2="162.00000000000006" stroke="#dddddd" stroke-width="1"/>
<text x="80" y="167.00000000000006" text-anchor="end" font-size="14" font-family="Arial">0.72</text>
<line x1="90" y1="60.0" x2="780" y2="60.0" stroke="#dddddd" stroke-width="1"/>
<text x="80" y="65.0" text-anchor="end" font-size="14" font-family="Arial">0.90</text>
<line x1="90.0" y1="60" x2="90.0" y2="570" stroke="#eeeeee" stroke-width="1"/>
<text x="90.0" y="595" text-anchor="middle" font-size="14" font-family="Arial">2015</text>
<line x1="159.0" y1="60" x2="159.0" y2="570" stroke="#eeeeee" stroke-width="1"/>
<text x="159.0" y="595" text-anchor="middle" font-size="14" font-family="Arial">2016</text>
<line x1="228.0" y1="60" x2="228.0" y2="570" stroke="#eeeeee" stroke-width="1"/>
<text x="228.0" y="595" text-anchor="middle" font-size="14" font-family="Arial">2017</text>
<line x1="297.0" y1="60" x2="297.0" y2="570" stroke="#eeeeee" stroke-width="1"/>
<text x="297.0" y="595" text-anchor="middle" font-size="14" font-family="Arial">2018</text>
<line x1="366.0" y1="60" x2="366.0" y2="570" stroke="#eeeeee" stroke-width="1"/>
<text x="366.0" y="595" text-anchor="middle" font-size="14" font-family="Arial">2019</text>
<line x1="435.0" y1="60" x2="435.0" y2="570" stroke="#eeeeee" stroke-width="1"/>
<text x="435.0" y="595" text-anchor="middle" font-size="14" font-family="Arial">2020</text>
<line x1="504.0" y1="60" x2="504.0" y2="570" stroke="#eeeeee" stroke-width="1"/>
<text x="504.0" y="595" text-anchor="middle" font-size="14" font-family="Arial">2021</text>
<line x1="573.0" y1="60" x2="573.0" y2="570" stroke="#eeeeee" stroke-width="1"/>
<text x="573.0" y="595" text-anchor="middle" font-size="14" font-family="Arial">2022</text>
<line x1="642.0" y1="60" x2="642.0" y2="570" stroke="#eeeeee" stroke-width="1"/>
<text x="642.0" y="595" text-anchor="middle" font-size="14" font-family="Arial">2023</text>
<line x1="711.0" y1="60" x2="711.0" y2="570" stroke="#eeeeee" stroke-width="1"/>
<text x="711.0" y="595" text-anchor="middle" font-size="14" font-family="Arial">2024</text>
<line x1="780.0" y1="60" x2="780.0" y2="570" stroke="#eeeeee" stroke-width="1"/>
<text x="780.0" y="595" text-anchor="middle" font-size="14" font-family="Arial">2025</text>
<text x="435.0" y="630" text-anchor="middle" font-size="18" font-family="Arial">Publication year</text>
<text x="25" y="315.0" text-anchor="middle" font-size="18" font-family="Arial" transform="rotate(-90 25 315.0)">Proportion within mechanistic corpus</text>
<polyline fill="none" stroke="#1f77b4" stroke-width="3" points="90.0,395.5 159.0,385.3 228.0,424.5 297.0,426.8 366.0,372.3 435.0,401.5 504.0,368.7 573.0,373.9 642.0,452.6 711.0,351.8 780.0,313.3"/>
<circle cx="90.0" cy="395.5" r="4.5" fill="#1f77b4"/>
<circle cx="159.0" cy="385.3" r="4.5" fill="#1f77b4"/>
<circle cx="228.0" cy="424.5" r="4.5" fill="#1f77b4"/>
<circle cx="297.0" cy="426.8" r="4.5" fill="#1f77b4"/>
<circle cx="366.0" cy="372.3" r="4.5" fill="#1f77b4"/>
<circle cx="435.0" cy="401.5" r="4.5" fill="#1f77b4"/>
<circle cx="504.0" cy="368.7" r="4.5" fill="#1f77b4"/>
<circle cx="573.0" cy="373.9" r="4.5" fill="#1f77b4"/>
<circle cx="642.0" cy="452.6" r="4.5" fill="#1f77b4"/>
<circle cx="711.0" cy="351.8" r="4.5" fill="#1f77b4"/>
<circle cx="780.0" cy="313.3" r="4.5" fill="#1f77b4"/>
<line x1="810" y1="100" x2="838" y2="100" stroke="#1f77b4" stroke-width="3"/>
<circle cx="824" cy="100" r="4.5" fill="#1f77b4"/>
<text x="850" y="105" font-size="15" font-family="Arial">Tolerance / regulation</text>
<polyline fill="none" stroke="#d62728" stroke-width="3" points="90.0,60.0 159.0,181.3 228.0,106.3 297.0,131.6 366.0,138.1 435.0,145.8 504.0,174.1 573.0,153.4 642.0,188.3 711.0,151.8 780.0,167.4"/>
<circle cx="90.0" cy="60.0" r="4.5" fill="#d62728"/>
<circle cx="159.0" cy="181.3" r="4.5" fill="#d62728"/>
<circle cx="228.0" cy="106.3" r="4.5" fill="#d62728"/>
<circle cx="297.0" cy="131.6" r="4.5" fill="#d62728"/>
<circle cx="366.0" cy="138.1" r="4.5" fill="#d62728"/>
<circle cx="435.0" cy="145.8" r="4.5" fill="#d62728"/>
<circle cx="504.0" cy="174.1" r="4.5" fill="#d62728"/>
<circle cx="573.0" cy="153.4" r="4.5" fill="#d62728"/>
<circle cx="642.0" cy="188.3" r="4.5" fill="#d62728"/>
<circle cx="711.0" cy="151.8" r="4.5" fill="#d62728"/>
<circle cx="780.0" cy="167.4" r="4.5" fill="#d62728"/>
<line x1="810" y1="135" x2="838" y2="135" stroke="#d62728" stroke-width="3"/>
<circle cx="824" cy="135" r="4.5" fill="#d62728"/>
<text x="850" y="140" font-size="15" font-family="Arial">Sensitization / IgE</text>
<polyline fill="none" stroke="#2ca02c" stroke-width="3" points="90.0,516.3 159.0,492.3 228.0,488.2 297.0,453.7 366.0,430.9 435.0,453.8 504.0,455.9 573.0,410.7 642.0,452.6 711.0,388.2 780.0,398.9"/>
<circle cx="90.0" cy="516.3" r="4.5" fill="#2ca02c"/>
<circle cx="159.0" cy="492.3" r="4.5" fill="#2ca02c"/>
<circle cx="228.0" cy="488.2" r="4.5" fill="#2ca02c"/>
<circle cx="297.0" cy="453.7" r="4.5" fill="#2ca02c"/>
<circle cx="366.0" cy="430.9" r="4.5" fill="#2ca02c"/>
<circle cx="435.0" cy="453.8" r="4.5" fill="#2ca02c"/>
<circle cx="504.0" cy="455.9" r="4.5" fill="#2ca02c"/>
<circle cx="573.0" cy="410.7" r="4.5" fill="#2ca02c"/>
<circle cx="642.0" cy="452.6" r="4.5" fill="#2ca02c"/>
<circle cx="711.0" cy="388.2" r="4.5" fill="#2ca02c"/>
<circle cx="780.0" cy="398.9" r="4.5" fill="#2ca02c"/>
<line x1="810" y1="170" x2="838" y2="170" stroke="#2ca02c" stroke-width="3"/>
<circle cx="824" cy="170" r="4.5" fill="#2ca02c"/>
<text x="850" y="175" font-size="15" font-family="Arial">Microbiome</text>
<polyline fill="none" stroke="#9467bd" stroke-width="3" points="90.0,516.3 159.0,414.5 228.0,497.3 297.0,444.7 366.0,482.2 435.0,448.0 504.0,489.5 573.0,465.8 642.0,493.7 711.0,436.7 780.0,444.2"/>
<circle cx="90.0" cy="516.3" r="4.5" fill="#9467bd"/>
<circle cx="159.0" cy="414.5" r="4.5" fill="#9467bd"/>
<circle cx="228.0" cy="497.3" r="4.5" fill="#9467bd"/>
<circle cx="297.0" cy="444.7" r="4.5" fill="#9467bd"/>
<circle cx="366.0" cy="482.2" r="4.5" fill="#9467bd"/>
<circle cx="435.0" cy="448.0" r="4.5" fill="#9467bd"/>
<circle cx="504.0" cy="489.5" r="4.5" fill="#9467bd"/>
<circle cx="573.0" cy="465.8" r="4.5" fill="#9467bd"/>
<circle cx="642.0" cy="493.7" r="4.5" fill="#9467bd"/>
<circle cx="711.0" cy="436.7" r="4.5" fill="#9467bd"/>
<circle cx="780.0" cy="444.2" r="4.5" fill="#9467bd"/>
<line x1="810" y1="205" x2="838" y2="205" stroke="#9467bd" stroke-width="3"/>
<circle cx="824" cy="205" r="4.5" fill="#9467bd"/>
<text x="850" y="210" font-size="15" font-family="Arial">Barrier / epithelial</text>
</svg>